# xmcd
#
# Track frame offsets: 
#        300
#        16409
#        38515
#        54912
#        83548
#        103482
#        125782
#        146047
#        170187
#        190750
#
# Disc length: 2961 seconds
#
# Revision: 2
# Processed by: cddbd v1.5.2PL0 Copyright (c) Steve Scherf et al.
# Submitted via: ExactAudioCopy v1.0b1
#
DISCID=890b8d0a
DTITLE=Pat Travers - Just a Touch
DYEAR=1993
DGENRE=Boogie Rock
TTITLE0=The Riff
TTITLE1=Too Cool Woman Blues
TTITLE2=You Don't Love Me
TTITLE3=The Pain
TTITLE4=Wasted Years
TTITLE5=I've Fallen
TTITLE6=Daydream (Your Blues Away)
TTITLE7=Amanda
TTITLE8=The More Things Change
TTITLE9=Miss Glory
EXTD=Blues Bureau-1993
EXTT0=
EXTT1=
EXTT2=
EXTT3=
EXTT4=
EXTT5=
EXTT6=
EXTT7=
EXTT8=
EXTT9=
PLAYORDER=
